HIERARCHY
ROOT joint_Root
{
	OFFSET 0.0 0.0 0.0
	CHANNELS 6 Xposition Yposition Zposition Zrotation Xrotation Yrotation 
	JOINT Hips
	{
		OFFSET 4.5925 91.4895 -427.239
		CHANNELS 6 Xposition Yposition Zposition Zrotation Xrotation Yrotation 
		JOINT Spine
		{
			OFFSET 15.7357 0.0 0.0
			CHANNELS 6 Xposition Yposition Zposition Zrotation Xrotation Yrotation 
			JOINT Chest
			{
				OFFSET 8.98455 -0.406207 0.0
				CHANNELS 6 Xposition Yposition Zposition Zrotation Xrotation Yrotation 
				JOINT Neck
				{
					OFFSET 16.3773 0.0 0.0
					CHANNELS 6 Xposition Yposition Zposition Zrotation Xrotation Yrotation 
					JOINT Head
					{
						OFFSET 6.45672 0.0 0.0
						CHANNELS 6 Xposition Yposition Zposition Zrotation Xrotation Yrotation 
						End Site
						{
							OFFSET 0.0 0.0 0.0
						}
					}
				}
				JOINT Shoulder_L
				{
					OFFSET 12.9942 -0.242716 4.98039
					CHANNELS 6 Xposition Yposition Zposition Zrotation Xrotation Yrotation 
					JOINT UpperArm_L
					{
						OFFSET 5.34809 0.0 0.0
						CHANNELS 6 Xposition Yposition Zposition Zrotation Xrotation Yrotation 
						JOINT LowerArm_L
						{
							OFFSET 24.3286 1.87007e-05 0.0
							CHANNELS 6 Xposition Yposition Zposition Zrotation Xrotation Yrotation 
							JOINT Hand_L
							{
								OFFSET 22.2916 0.0 0.0
								CHANNELS 6 Xposition Yposition Zposition Zrotation Xrotation Yrotation 
								End Site
								{
									OFFSET 0.0 0.0 0.0
								}
							}
						}
					}
				}
				JOINT Shoulder_R
				{
					OFFSET 12.9945 -0.242716 -4.98039
					CHANNELS 6 Xposition Yposition Zposition Zrotation Xrotation Yrotation 
					JOINT UpperArm_R
					{
						OFFSET -5.34813 0.0 0.0
						CHANNELS 6 Xposition Yposition Zposition Zrotation Xrotation Yrotation 
						JOINT LowerArm_R
						{
							OFFSET -24.3289 0.000322201 0.0
							CHANNELS 6 Xposition Yposition Zposition Zrotation Xrotation Yrotation 
							JOINT Hand_R
							{
								OFFSET -22.2915 -0.000108084 0.0
								CHANNELS 6 Xposition Yposition Zposition Zrotation Xrotation Yrotation 
								End Site
								{
									OFFSET 0.0 0.0 0.0
								}
							}
						}
					}
				}
			}
		}
		JOINT UpperLeg_L
		{
			OFFSET -2.19248 -6.46944 0.0
			CHANNELS 6 Xposition Yposition Zposition Zrotation Xrotation Yrotation 
			JOINT LowerLeg_L
			{
				OFFSET 39.0811 0.0 -1.23785e-05
				CHANNELS 6 Xposition Yposition Zposition Zrotation Xrotation Yrotation 
				JOINT Foot_L
				{
					OFFSET 40.9854 0.0 -1.26872e-05
					CHANNELS 6 Xposition Yposition Zposition Zrotation Xrotation Yrotation 
					JOINT Toes_L
					{
						OFFSET 11.7543 0.0 0.0
						CHANNELS 6 Xposition Yposition Zposition Zrotation Xrotation Yrotation 
						End Site
						{
							OFFSET 0.0 0.0 0.0
						}
					}
				}
			}
		}
		JOINT UpperLeg_R
		{
			OFFSET -2.19251 6.46944 0.0
			CHANNELS 6 Xposition Yposition Zposition Zrotation Xrotation Yrotation 
			JOINT LowerLeg_R
			{
				OFFSET -39.0811 -0.00228153 -0.0401928
				CHANNELS 6 Xposition Yposition Zposition Zrotation Xrotation Yrotation 
				JOINT Foot_R
				{
					OFFSET -40.9854 0.0 0.0
					CHANNELS 6 Xposition Yposition Zposition Zrotation Xrotation Yrotation 
					JOINT Toes_R
					{
						OFFSET -11.7543 0.0 0.0
						CHANNELS 6 Xposition Yposition Zposition Zrotation Xrotation Yrotation 
						End Site
						{
							OFFSET 0.0 0.0 0.0
						}
					}
				}
			}
		}
	}
}
MOTION
Frames:	5
Frame Time:	0.0333333
0.000000 0.000000 0.000000 0.000000 0.000000 -0.000000 -0.109518 81.135300 0.678996 88.445100 -3.032890 11.621300 15.735700 0.000005 -0.000001 88.214400 81.347700 -88.399500 8.984550 -0.406207 -0.000000 9.529540 -0.538930 -0.325018 16.377300 -0.000001 -0.000001 -5.319670 -4.405110 1.755300 6.456720 -0.000001 -0.000000 -3.695650 -4.494150 1.867250 12.994200 -0.242716 4.980390 -90.692500 2.313230 -73.327100 5.348090 -0.000007 -0.000001 -74.922700 36.238300 1.893280 24.328600 0.000019 0.000005 7.531270 25.543900 -17.045800 22.291600 -0.000001 0.000005 5.239550 5.210740 2.448080 12.994500 -0.242716 -4.980390 88.793900 8.298130 -81.700800 -5.348130 -0.000001 -0.000004 -71.350800 49.170200 2.774560 -24.328900 0.000322 -0.000009 3.645520 14.935800 -13.888500 -22.291500 -0.000108 -0.000004 -11.260300 5.157210 3.820860 -2.192480 -6.469440 -0.000000 -173.633000 -9.381920 -14.123200 39.081100 -0.000007 -0.000012 -0.694012 0.327135 64.763900 40.985400 -0.000006 -0.000013 0.247101 2.584400 -88.800300 11.754300 -0.000000 0.000003 -0.000442 -0.003595 -16.709600 -2.192510 6.469440 -0.000001 177.230000 9.226510 166.130000 -39.081100 -0.002282 -0.040193 0.091630 -0.042129 64.534200 -40.985400 0.000008 0.000006 6.361190 2.776100 -88.474000 -11.754300 -0.000006 -0.000006 -0.639312 -0.785281 -17.119200
0.000000 0.000000 0.000000 0.000000 0.000000 -0.000000 -0.017544 83.660500 1.134950 88.862700 -2.928110 11.576200 15.735700 0.000005 -0.000001 89.809800 82.474400 -90.028000 8.984550 -0.406207 -0.000000 7.285110 -0.048879 -0.432930 16.377300 -0.000001 -0.000001 -2.504710 -4.447400 1.658080 6.456720 -0.000001 -0.000000 -1.515580 -4.714540 1.003180 12.994200 -0.242716 4.980390 -90.085800 0.276149 -72.709300 5.348090 -0.000007 -0.000001 -68.007100 34.436800 -9.682080 24.328600 0.000019 0.000005 7.881730 24.683000 -18.340100 22.291600 -0.000001 0.000005 6.087560 5.217460 2.277590 12.994500 -0.242716 -4.980390 89.108100 5.944540 -81.450000 -5.348130 -0.000001 -0.000004 -63.112500 46.720300 -9.032430 -24.328900 0.000322 -0.000009 2.699500 11.036100 -13.843900 -22.291500 -0.000108 -0.000004 -11.303000 5.131380 4.399590 -2.192480 -6.469440 -0.000000 -174.030000 -9.875140 -10.266600 39.081100 -0.000007 -0.000012 -0.580507 0.370935 57.423400 40.985400 -0.000006 -0.000013 0.406137 3.074760 -85.374300 11.754300 -0.000000 0.000003 -0.000367 -0.003079 -16.691500 -2.192510 6.469440 -0.000001 176.348000 10.173400 169.827000 -39.081100 -0.002282 -0.040193 0.074116 -0.045126 57.524900 -40.985400 0.000008 0.000006 6.483670 4.254440 -85.067100 -11.754300 -0.000006 -0.000006 -0.734919 -0.902223 -17.250200
0.000000 0.000000 0.000000 0.000000 0.000000 -0.000000 0.039328 86.363600 1.614900 89.235500 -2.774840 11.600800 15.735700 0.000005 -0.000001 91.782900 83.792400 -92.026600 8.984550 -0.406207 -0.000000 4.644090 0.392208 -0.502766 16.377300 -0.000001 -0.000001 2.525730 -4.488620 1.747860 6.456720 -0.000001 -0.000000 1.904480 -4.768710 0.181174 12.994200 -0.242716 4.980390 -89.610700 -1.205210 -72.099700 5.348090 -0.000007 -0.000001 -58.309600 27.995300 -24.954400 24.328600 0.000019 0.000005 8.790920 23.861400 -20.923100 22.291600 -0.000001 0.000005 8.578580 5.198180 2.762180 12.994500 -0.242716 -4.980390 89.466300 3.263940 -80.705600 -5.348130 -0.000001 -0.000004 -51.853000 40.296500 -24.228300 -24.328900 0.000322 -0.000009 2.555740 9.048580 -15.850600 -22.291500 -0.000108 -0.000004 -6.559470 5.212080 2.468300 -2.192480 -6.469440 -0.000000 -174.275000 -10.507800 -5.518110 39.081100 -0.000007 -0.000012 -0.438589 0.388230 48.486400 40.985400 -0.000006 -0.000013 0.517129 3.840980 -81.156700 11.754300 -0.000000 0.000003 -0.000256 -0.002279 -16.662900 -2.192510 6.469440 -0.000001 175.142000 12.188700 174.392000 -39.081100 -0.002282 -0.040193 0.054654 -0.044520 49.104400 -40.985400 0.000008 0.000006 6.776920 6.814200 -80.837300 -11.754300 -0.000006 -0.000006 -0.688203 -0.841173 -17.719300
0.000000 0.000000 0.000000 0.000000 0.000000 -0.000000 0.070108 88.454900 1.647450 89.129500 -2.522660 10.543500 15.735700 0.000005 -0.000001 92.119100 85.245100 -92.248400 8.984550 -0.406207 -0.000000 1.737780 0.358246 -0.263689 16.377300 -0.000001 -0.000001 6.898640 -4.388450 2.012680 6.456720 -0.000001 -0.000000 6.023760 -4.711150 -0.733333 12.994200 -0.242716 4.980390 -89.042500 -3.004640 -72.309300 5.348090 -0.000007 -0.000001 -50.095000 17.590100 -39.647600 24.328600 0.000019 0.000005 9.648200 21.132500 -25.250400 22.291600 -0.000001 0.000005 11.865900 5.193440 2.882590 12.994500 -0.242716 -4.980390 89.903400 0.588583 -80.690700 -5.348130 -0.000001 -0.000004 -41.467000 28.920900 -38.617300 -24.328900 0.000322 -0.000009 3.317760 8.878710 -20.595000 -22.291500 -0.000108 -0.000004 2.427850 5.294170 0.299978 -2.192480 -6.469440 -0.000000 -174.336000 -10.886900 -2.804940 39.081100 -0.000007 -0.000012 -0.323235 0.375311 40.737200 40.985400 -0.000006 -0.000013 0.493600 4.460850 -77.191400 11.754300 -0.000000 0.000003 -0.000190 -0.001776 -16.644700 -2.192510 6.469440 -0.000001 174.682000 14.721100 177.150000 -39.081100 -0.002282 -0.040193 0.039781 -0.041115 41.602500 -40.985400 0.000008 0.000006 7.062100 9.557620 -76.814400 -11.754300 -0.000006 -0.000006 -0.648406 -0.790781 -18.164300
0.000000 0.000000 0.000000 0.000000 0.000000 -0.000000 0.080701 89.748100 1.510730 88.798600 -2.453270 9.590250 15.735700 0.000005 -0.000001 91.725900 86.223900 -91.639100 8.984550 -0.406207 -0.000000 -0.217365 0.221360 0.173807 16.377300 -0.000001 -0.000001 8.908210 -4.298900 2.521160 6.456720 -0.000001 -0.000000 9.009330 -4.652000 -1.971850 12.994200 -0.242716 4.980390 -88.429700 -5.212950 -73.208100 5.348090 -0.000007 -0.000001 -44.746300 3.906520 -51.674800 24.328600 0.000019 0.000005 9.721480 16.697900 -30.819900 22.291600 -0.000001 0.000005 16.080800 5.214030 2.384570 12.994500 -0.242716 -4.980390 90.261400 -1.617000 -80.816700 -5.348130 -0.000001 -0.000004 -34.893000 12.554700 -49.634100 -24.328900 0.000322 -0.000009 2.704560 5.072200 -28.210100 -22.291500 -0.000108 -0.000004 11.728200 5.367200 -1.791320 -2.192480 -6.469440 -0.000000 -174.253000 -10.849400 -1.250170 39.081100 -0.000007 -0.000012 -0.260741 0.367329 35.368800 40.985400 -0.000006 -0.000013 0.318487 4.572220 -74.346500 11.754300 -0.000000 0.000003 -0.000146 -0.001417 -16.631500 -2.192510 6.469440 -0.000001 174.655000 16.877600 179.087000 -39.081100 -0.002282 -0.040193 0.026908 -0.032661 35.873200 -40.985400 0.000008 0.000006 7.053310 11.941900 -74.139800 -11.754300 -0.000006 -0.000006 -0.474455 -0.585366 -18.138000
